<svg width="100%" viewBox="0 0 680 200" role="img" xmlns="http://www.w3.org/2000/svg">
  <title>Context Condenser — LVM banner</title>
  <desc>Dark banner with geometric ice-compression motif, showing the Context Condenser LVM brand</desc>

  <style>
    .banner-bg { fill: #0d1117; }
    .grid-line { stroke: #1e2d3d; stroke-width: 0.5; fill: none; }
    .accent { fill: #00c9a7; }
    .accent-dim { fill: #007a65; }
    .crystal { fill: none; stroke: #00c9a7; stroke-width: 0.8; }
    .crystal-inner { fill: #00c9a708; stroke: #00c9a740; stroke-width: 0.5; }
    .dot { fill: #00c9a7; }
    .label-main { font-family: 'JetBrains Mono', 'Fira Mono', monospace; font-size: 32px; font-weight: 700; fill: #e6edf3; letter-spacing: -0.5px; }
    .label-sub  { font-family: 'JetBrains Mono', 'Fira Mono', monospace; font-size: 12px; font-weight: 400; fill: #00c9a7; letter-spacing: 3px; }
    .label-tag  { font-family: 'JetBrains Mono', 'Fira Mono', monospace; font-size: 10px; font-weight: 400; fill: #8b949e; letter-spacing: 1px; }
    .bar-raw    { fill: #1e2d3d; }
    .bar-lvm    { fill: #00c9a7; }
    .bar-label  { font-family: 'JetBrains Mono', 'Fira Mono', monospace; font-size: 9px; fill: #8b949e; }
    .bar-pct    { font-family: 'JetBrains Mono', 'Fira Mono', monospace; font-size: 9px; fill: #00c9a7; font-weight: 700; }
    .divider    { stroke: #1e2d3d; stroke-width: 1; }
    .pipe-line  { stroke: #1e2d3d; stroke-width: 1; fill: none; }
    .pipe-dot   { fill: #1e2d3d; stroke: #00c9a7; stroke-width: 0.8; }
    .pipe-dot-active { fill: #00c9a7; }
    .bracket    { stroke: #00c9a730; stroke-width: 0.8; fill: none; }
  </style>

  <rect width="680" height="200" class="banner-bg"/>

  <g class="grid-line">
    <line x1="0" y1="40" x2="680" y2="40"/>
    <line x1="0" y1="80" x2="680" y2="80"/>
    <line x1="0" y1="120" x2="680" y2="120"/>
    <line x1="0" y1="160" x2="680" y2="160"/>
    <line x1="80"  y1="0" x2="80"  y2="200"/>
    <line x1="160" y1="0" x2="160" y2="200"/>
    <line x1="560" y1="0" x2="560" y2="200"/>
    <line x1="640" y1="0" x2="640" y2="200"/>
  </g>

  <polygon points="56,30 76,18 96,30 96,58 76,70 56,58" class="crystal"/>
  <polygon points="62,36 76,28 90,36 90,52 76,60 62,52" class="crystal-inner"/>
  <circle cx="68" cy="38" r="2" class="dot" opacity="0.4"/>
  <circle cx="76" cy="34" r="2" class="dot" opacity="0.4"/>
  <circle cx="84" cy="38" r="2" class="dot" opacity="0.4"/>
  <circle cx="68" cy="46" r="2" class="dot" opacity="0.3"/>
  <circle cx="76" cy="50" r="2" class="dot" opacity="0.3"/>
  <circle cx="84" cy="46" r="2" class="dot" opacity="0.3"/>
  <circle cx="76" cy="44" r="4" class="accent"/>

  <line x1="100" y1="44" x2="118" y2="44" stroke="#00c9a7" stroke-width="1" stroke-dasharray="2,2"/>
  <polygon points="118,41 124,44 118,47" fill="#00c9a7"/>

  <text x="132" y="58" class="label-main">Context Condenser</text>
  <rect x="132" y="65" width="340" height="1.5" class="accent"/>
  <rect x="476" y="65" width="60" height="1.5" class="accent-dim" opacity="0.4"/>
  <text x="132" y="82" class="label-sub">LVM · LOW-VALUE MANAGEMENT</text>

  <rect x="600" y="24" width="60" height="18" rx="3" fill="#00c9a715" stroke="#00c9a740" stroke-width="0.8"/>
  <text x="630" y="36" class="label-tag" text-anchor="middle">v1.0.0</text>

  <line x1="40" y1="100" x2="640" y2="100" class="divider"/>

  <text x="40" y="120" class="label-tag">TOKEN COMPRESSION</text>
  <text x="40" y="138" class="bar-label">RAW</text>
  <rect x="72" y="129" width="240" height="10" rx="2" class="bar-raw"/>
  <text x="318" y="138" class="bar-label">142,500 tokens</text>
  <text x="40" y="158" class="bar-label">LVM</text>
  <rect x="72" y="149" width="22" height="10" rx="2" class="bar-lvm"/>
  <text x="318" y="158" class="bar-pct">8,420 tokens → 94.1% saved</text>

  <line x1="468" y1="108" x2="468" y2="192" class="pipe-line"/>
  <circle cx="468" cy="118" r="5" class="pipe-dot-active"/>
  <circle cx="468" cy="138" r="4" class="pipe-dot"/>
  <circle cx="468" cy="158" r="4" class="pipe-dot"/>
  <circle cx="468" cy="178" r="5" class="pipe-dot-active"/>
  <text x="480" y="122" class="bar-label">index</text>
  <text x="480" y="142" class="bar-label">condense</text>
  <text x="480" y="162" class="bar-label">hydrate</text>
  <text x="480" y="182" class="bar-label">LLM prompt</text>
  <path d="M470,110 L463,110 L463,188 L470,188" class="bracket"/>

  <text x="540" y="122" class="label-tag" text-anchor="start">WORKS WITH</text>
  <rect x="540" y="130" width="40" height="14" rx="2" fill="#1e2d3d" stroke="#8b949e30" stroke-width="0.5"/>
  <text x="560" y="141" class="bar-label" text-anchor="middle">Claude</text>
  <rect x="586" y="130" width="30" height="14" rx="2" fill="#1e2d3d" stroke="#8b949e30" stroke-width="0.5"/>
  <text x="601" y="141" class="bar-label" text-anchor="middle">GPT-4</text>
  <rect x="540" y="150" width="40" height="14" rx="2" fill="#1e2d3d" stroke="#8b949e30" stroke-width="0.5"/>
  <text x="560" y="161" class="bar-label" text-anchor="middle">Gemini</text>
  <rect x="586" y="150" width="42" height="14" rx="2" fill="#1e2d3d" stroke="#8b949e30" stroke-width="0.5"/>
  <text x="607" y="161" class="bar-label" text-anchor="middle">MCP</text>

  <line x1="40" y1="182" x2="420" y2="182" class="divider"/>
  <text x="40" y="194" class="label-tag">STOP PAYING TO SEND THE SAME BOILERPLATE TO YOUR LLM 100× A DAY</text>
</svg>
